<?xml version="1.0" standalone="no"?>
<!DOCTYPE svg PUBLIC "-//W3C//DTD SVG 20010904//EN"
 "http://www.w3.org/TR/2001/REC-SVG-20010904/DTD/svg10.dtd">
<svg version="1.0" xmlns="http://www.w3.org/2000/svg"
 width="500.000000pt" height="500.000000pt" viewBox="0 0 500.000000 500.000000"
 preserveAspectRatio="xMidYMid meet">
<metadata>
Created by potrace 1.15, written by Peter Selinger 2001-2017
</metadata>
<g transform="translate(0.000000,500.000000) scale(0.100000,-0.100000)"
fill="#000000" stroke="none">
<path d="M0 2500 l0 -2500 2500 0 2500 0 0 2500 0 2500 -2500 0 -2500 0 0
-2500z m4680 5 l0 -2195 -2185 0 -2185 0 0 2195 0 2195 2185 0 2185 0 0 -2195z"/>
<path d="M380 2505 l0 -2115 2115 0 2115 0 0 2115 0 2115 -2115 0 -2115 0 0
-2115z m945 1180 l29 -150 30 153 29 152 38 0 c37 0 38 -1 33 -27 -3 -16 -25
-116 -48 -223 l-42 -195 -40 0 -39 0 -42 190 c-23 105 -44 205 -48 223 l-6 33
38 -3 38 -3 30 -150z m435 120 l0 -34 -72 -3 -73 -3 -3 -57 -3 -57 58 -3 c57
-3 58 -3 58 -33 0 -29 -2 -30 -55 -35 l-55 -5 -3 -57 -3 -58 76 0 75 0 0 -35
0 -35 -110 0 -110 0 0 225 0 225 110 0 110 0 0 -35z m260 15 c17 -17 20 -33
20 -126 0 -81 -4 -113 -17 -134 -15 -26 -15 -32 0 -87 24 -83 23 -85 -20 -81
-33 3 -38 7 -46 38 -26 105 -28 110 -47 110 -18 0 -20 -7 -20 -75 l0 -75 -35
0 -35 0 0 225 0 225 90 0 c77 0 93 -3 110 -20z m171 -59 c15 -40 30 -75 33
-78 2 -2 17 31 34 74 28 76 30 78 66 81 23 2 36 -1 36 -9 0 -7 -22 -67 -50
-135 -47 -116 -50 -128 -50 -213 l0 -91 -35 0 -35 0 0 90 c0 84 -3 97 -50 215
-27 69 -50 130 -50 136 0 6 16 9 36 7 36 -3 38 -5 65 -77z m569 59 c15 -15 20
-33 20 -75 l0 -55 -35 0 c-33 0 -35 2 -35 35 0 29 -4 36 -25 41 -53 13 -55 7
-55 -151 0 -158 2 -164 55 -151 22 6 25 12 25 51 0 38 -3 45 -20 45 -16 0 -20
7 -20 35 l0 35 55 0 55 0 0 -100 c0 -129 -8 -140 -110 -140 -62 0 -74 3 -95
25 -25 24 -25 27 -25 200 0 173 0 176 25 200 21 22 33 25 95 25 57 0 74 -4 90
-20z m280 0 c19 -19 20 -33 20 -205 0 -224 -1 -225 -105 -225 -57 0 -69 3 -90
25 -25 24 -25 27 -25 200 0 173 0 176 25 200 21 22 33 25 90 25 52 0 69 -4 85
-20z m280 0 c19 -19 20 -33 20 -205 0 -224 -1 -225 -105 -225 -57 0 -69 3 -90
25 -25 24 -25 27 -25 200 0 173 0 176 25 200 21 22 33 25 90 25 52 0 69 -4 85
-20z m281 1 c24 -19 24 -22 24 -206 0 -185 0 -187 -24 -206 -20 -17 -37 -19
-110 -17 l-86 3 -3 210 c-1 115 0 215 2 222 4 9 31 13 90 13 68 0 88 -4 107
-19z m-2154 -593 c18 -17 23 -32 23 -75 l0 -54 -37 3 c-35 3 -38 6 -43 38 -4
29 -9 35 -30 35 -23 0 -25 -4 -28 -50 l-3 -51 71 -22 70 -23 0 -91 c0 -80 -3
-95 -22 -115 -18 -19 -31 -23 -87 -23 -87 0 -111 21 -111 97 l0 54 38 -3 c34
-3 37 -6 42 -38 4 -29 9 -35 30 -35 23 0 25 3 25 49 l0 49 -65 22 -65 22 -3
93 c-3 84 -1 95 19 116 19 21 32 24 88 24 53 0 69 -4 88 -22z m280 0 c22 -21
23 -26 23 -202 0 -171 -1 -181 -22 -203 -18 -19 -31 -23 -87 -23 -53 0 -69 4
-88 22 -22 21 -23 26 -23 202 0 171 1 181 22 203 18 19 31 23 87 23 53 0 69
-4 88 -22z m303 -13 l0 -35 -70 0 -70 0 0 -60 0 -60 55 0 55 0 0 -35 0 -35
-55 0 -54 0 -3 -92 -3 -93 -37 -3 -38 -3 0 225 0 226 110 0 110 0 0 -35z m270
0 c0 -33 -2 -35 -35 -35 l-35 0 0 -191 0 -190 -37 3 -38 3 -3 188 -2 187 -35
0 c-33 0 -35 2 -35 35 l0 35 110 0 110 0 0 -35z m136 -100 c11 -141 12 -140
44 18 11 54 22 103 26 108 5 8 54 13 54 5 0 -11 51 -250 54 -253 2 -2 7 36 10
84 13 172 14 173 52 173 31 0 34 -3 34 -30 0 -36 -39 -390 -45 -407 -2 -7 -20
-13 -39 -13 -39 0 -35 -9 -67 138 -12 56 -25 99 -28 96 -3 -3 -18 -56 -32
-117 l-26 -112 -39 0 -39 0 -22 200 c-29 269 -31 247 15 243 l37 -3 11 -130z
m563 -67 c23 -112 44 -213 47 -225 6 -21 3 -23 -34 -23 -39 0 -40 0 -46 45
l-7 45 -49 0 -49 0 -8 -42 c-8 -41 -11 -43 -46 -46 -20 -2 -37 0 -37 5 0 4 15
80 34 168 19 88 39 186 46 218 l11 57 48 0 48 0 42 -202z m306 177 c23 -22 25
-31 25 -123 0 -85 -3 -103 -20 -125 l-20 -26 20 -73 c11 -40 20 -74 20 -75 0
-2 -18 -3 -39 -3 l-39 0 -18 75 c-14 59 -21 75 -36 75 -16 0 -18 -9 -18 -75
l0 -75 -40 0 -40 0 0 225 0 225 90 0 c83 0 93 -2 115 -25z m305 -10 l0 -34
-72 -3 -73 -3 -3 -57 -3 -57 58 -3 c57 -3 58 -3 58 -33 0 -29 -2 -30 -55 -35
l-55 -5 -3 -57 -3 -58 76 0 75 0 0 -35 0 -35 -110 0 -110 0 0 225 0 225 110 0
110 0 0 -35z m-1955 -580 c20 -19 25 -34 25 -75 l0 -51 -37 3 c-35 3 -38 6
-43 38 -5 38 -30 51 -55 30 -22 -18 -22 -272 0 -290 25 -21 50 -8 55 30 5 32
8 35 43 38 l37 3 0 -51 c0 -41 -5 -56 -25 -75 -21 -22 -33 -25 -90 -25 -104 0
-105 1 -105 225 0 224 1 225 105 225 57 0 69 -3 90 -25z m282 3 c22 -21 23
-26 23 -202 0 -171 -1 -181 -22 -203 -18 -19 -31 -23 -87 -23 -53 0 -69 4 -88
22 -22 21 -23 26 -23 202 0 171 1 181 22 203 18 19 31 23 87 23 53 0 69 -4 88
-22z m210 -123 c17 -77 32 -137 32 -133 2 15 52 245 57 261 4 13 16 17 50 17
l44 0 0 -225 0 -225 -35 0 -34 0 -3 128 -3 127 -24 -115 c-30 -144 -28 -140
-56 -140 -20 0 -25 7 -34 53 -6 28 -19 86 -29 127 l-17 75 -3 -127 -3 -128
-34 0 -35 0 0 226 0 225 48 -3 47 -3 32 -140z m443 125 c18 -18 20 -33 20
-130 0 -134 -10 -150 -90 -150 l-50 0 0 -75 0 -75 -40 0 -40 0 0 225 0 225 90
0 c77 0 93 -3 110 -20z m309 -182 c23 -112 44 -213 47 -225 6 -21 3 -23 -34
-23 -39 0 -40 0 -46 45 l-7 45 -49 0 -49 0 -8 -42 c-8 -41 -11 -43 -46 -46
-20 -2 -37 0 -37 5 0 4 15 80 34 168 19 88 39 186 46 218 l11 57 48 0 48 0 42
-202z m216 84 l40 -113 3 115 3 116 39 0 40 0 0 -226 0 -225 -37 3 -38 3 -40
113 -40 113 -3 -115 -3 -116 -39 0 -40 0 0 226 0 225 38 -3 37 -3 40 -113z
m270 43 c15 -41 30 -77 34 -79 4 -3 20 31 35 75 l28 79 39 0 c21 0 39 -2 39
-5 0 -2 -22 -61 -50 -130 -48 -119 -50 -130 -50 -220 l0 -95 -40 0 -40 0 0 95
c0 90 -2 101 -50 220 -27 69 -50 128 -50 130 0 3 17 5 39 5 l38 0 28 -75z
m435 -1005 l0 -230 -1320 0 -1320 0 0 230 0 230 1320 0 1320 0 0 -230z"/>
<path d="M2925 3758 c-3 -8 -4 -77 -3 -153 l3 -140 30 0 30 0 0 150 0 150 -28
3 c-16 2 -29 -2 -32 -10z"/>
<path d="M3205 3758 c-3 -8 -4 -77 -3 -153 l3 -140 30 0 30 0 0 150 0 150 -28
3 c-16 2 -29 -2 -32 -10z"/>
<path d="M3480 3615 l0 -156 33 3 32 3 0 150 0 150 -32 3 -33 3 0 -156z"/>
<path d="M1606 3165 c-9 -25 -7 -268 3 -283 5 -8 21 -12 37 -10 l29 3 0 150 0
150 -31 3 c-22 2 -33 -2 -38 -13z"/>
<path d="M1816 2575 c-9 -25 -7 -268 3 -283 5 -8 21 -12 37 -10 l29 3 0 150 0
150 -31 3 c-22 2 -33 -2 -38 -13z"/>
</g>
</svg>
